<svg width="100" height="100" viewBox="0 0 100 100" fill="white" xmlns="http://www.w3.org/2000/svg">
  <g clip-path="url(#clip0_204_5143)">
    <path d="M399.81 799.05C179.4 799.56 -0.309622 620.71 -0.389622 399.83C-0.469622 178.96 177.98 0.46968 399.48 0.34968C620.68 0.21968 799.33 178.48 799.74 399.5C800.15 619.68 621.1 798.53 399.81 799.05ZM399.53 785.56C612.71 785.8 785.45 613.55 786.25 399.96C787.04 187.55 613.47 14.0897 399.76 13.7197C186.8 13.3497 13.3804 185.86 13.1104 399.35C12.8504 612.91 185.82 785.22 399.53 785.56Z" fill="black"/>
    <path d="M779.501 400.989C778.931 610.969 608.551 780.89 399.361 780.34C189.181 779.78 19.4808 610.089 19.8708 400.399C20.2708 190.349 190.541 20.8695 399.751 21.2095C609.661 21.5495 780.071 191.979 779.501 400.989ZM774.251 400.879C774.551 194.569 606.711 26.7595 399.741 26.4595C193.331 26.1595 25.1808 194.069 25.0008 400.689C24.8208 607.099 192.701 774.89 399.561 775.06C606.221 775.24 773.951 607.729 774.251 400.879Z" fill="black"/>
    <path d="M112 399.69C111.91 241.48 240.77 112.83 399.53 112.64C558.19 112.45 687.4 241.42 687.25 399.83C687.1 558.26 558.26 686.72 399.58 686.65C240.86 686.57 112.09 558.09 112 399.69ZM399.85 126.12C249.03 125.7 126.02 247.78 125.6 399.18C125.19 550.64 247.91 672.69 399.26 673.17C550.2 673.65 673.19 551.34 673.75 399.95C674.3 249.36 551.45 126.54 399.85 126.12Z" fill="black"/>
    <path d="M378.67 746.69C385.71 731.48 392.52 716.94 399.11 702.3C399.94 700.45 400.68 699.85 402.6 700.01C407.83 700.44 413.06 700.73 418.3 701.01C420.51 701.13 421.61 701.87 420.69 704.22C420.45 704.34 420.24 704.52 420.01 704.54C412.09 705.21 411.75 705.69 411.23 713.45C410.34 726.9 409.23 740.33 408.31 753.77C407.87 760.2 408.22 760.44 414.4 762.49C415.4 762.82 416.04 764.24 416.85 765.16C416.59 765.47 416.34 765.79 416.08 766.1C407.39 765.46 398.69 764.88 390.01 764.09C389.13 764.01 388.37 762.67 387.29 761.67C388.43 761.1 388.64 760.91 388.86 760.9C397.76 760.42 398.01 760.26 398.7 751.49C399.79 737.57 400.75 723.64 400.98 709.39C400.4 710.49 399.78 711.56 399.23 712.68C391.74 728.03 384.28 743.39 376.74 758.71C376.14 759.93 375.01 760.9 374.13 761.99C373.33 760.72 372.19 759.55 371.77 758.16C366.88 741.81 362.11 725.43 357.3 709.06C356.92 707.78 356.49 706.52 355.39 705.27C355.07 708.76 354.69 712.25 354.43 715.74C353.69 725.69 352.92 735.65 352.3 745.61C351.8 753.64 353.16 755.51 360.56 758.53C361.54 758.93 362.15 760.26 362.93 761.15C362.7 761.48 362.47 761.81 362.24 762.13C353.71 761.52 345.18 760.91 336.69 760.31C335.64 757.88 336.39 757.11 338.74 756.79C345.3 755.88 346.95 754.06 347.51 747.37C348.5 735.56 349.42 723.74 350.33 711.92C350.97 703.69 350.05 702.29 342.41 699.02C341.8 698.76 340.96 697.63 341.1 697.3C341.41 696.6 342.34 695.67 342.96 695.71C349.32 696.07 355.67 696.51 362 697.22C362.84 697.32 363.83 698.98 364.18 700.1C368.66 714.58 373.03 729.1 377.45 743.61C377.71 744.41 378.08 745.17 378.67 746.69Z" fill="black"/>
    <path d="M743.661 528.32C741.041 532.97 738.511 537.68 735.731 542.23C735.301 542.94 733.631 543.31 732.611 543.19C715.781 541.19 698.971 539.08 682.151 537.01C682.071 537 681.971 537.11 681.601 537.34C688.351 546.31 695.091 555.26 701.831 564.21C705.361 568.89 708.941 573.54 712.391 578.29C712.951 579.06 713.461 580.51 713.111 581.17C710.771 585.56 708.191 589.83 705.641 594.12C705.501 594.35 704.991 594.36 704.031 594.67C704.031 593.54 703.781 592.59 704.071 591.85C705.551 588.07 704.051 586.07 700.661 584.17C687.051 576.55 673.561 568.71 660.141 560.77C657.491 559.21 655.691 559.29 653.701 561.58C652.901 562.5 651.621 562.99 650.561 563.68C650.311 563.38 650.061 563.09 649.801 562.79C653.481 556.43 657.171 550.06 660.851 543.7C661.271 543.77 661.691 543.84 662.121 543.91C662.041 545.13 662.101 546.38 661.841 547.56C661.371 549.69 661.471 551.28 663.721 552.55C676.411 559.72 689.021 567.04 702.531 574.81C701.771 573.33 701.531 572.62 701.101 572.05C691.091 558.67 681.021 545.32 671.081 531.89C670.281 530.8 670.301 529.1 669.941 527.69C671.341 527.4 672.781 526.72 674.121 526.88C690.571 528.85 707.011 530.95 723.451 533C724.291 533.1 725.151 533.01 727.151 533.01C722.761 530.4 719.301 528.31 715.811 526.28C706.971 521.14 698.071 516.09 689.291 510.85C686.691 509.3 684.631 508.83 682.521 511.52C681.901 512.31 680.651 512.6 679.691 513.12C679.471 512.88 679.261 512.64 679.041 512.39C682.101 507.07 685.171 501.74 688.231 496.42C688.611 496.44 688.981 496.46 689.361 496.48C689.301 497.92 689.551 499.46 689.101 500.77C688.241 503.29 689.061 504.65 691.261 505.91C705.341 513.97 719.401 522.06 733.381 530.3C736.001 531.84 737.861 531.81 739.861 529.5C740.631 528.61 741.881 528.14 742.921 527.48C743.201 527.74 743.431 528.03 743.661 528.32Z" fill="black"/>
    <path d="M710.38 232.27C705.4 233.27 700.74 234.17 696.1 235.14C683.67 237.74 671.25 240.41 658.8 242.91C657.58 243.15 655.64 242.81 655 241.99C654.46 241.3 654.97 239.29 655.62 238.24C664.22 224.36 672.92 210.55 681.6 196.71C682.29 195.61 682.92 194.46 683.07 192.9C670.74 201.5 658.38 210.07 646.15 218.81C645.34 219.39 645.25 221.31 645.24 222.61C645.23 224.04 645.71 225.48 645.97 226.92C645.58 227.06 645.19 227.2 644.8 227.34C641.29 222.35 637.78 217.36 634.28 212.37C634.47 212.02 634.66 211.67 634.85 211.32C635.91 211.84 637.21 212.12 637.98 212.91C640.27 215.27 642.19 214.94 644.76 213.12C657.59 204.01 670.5 195.02 683.49 186.15C686.28 184.24 687.59 182.42 685.92 179.12C685.46 178.21 685.72 176.94 685.65 175.84C685.98 175.78 686.31 175.72 686.64 175.66C689.65 179.89 692.82 184.03 695.57 188.42C696.15 189.34 695.62 191.46 694.91 192.6C686.79 205.76 678.54 218.84 670.34 231.95C669.69 232.99 669.11 234.06 668.14 235.72C676.63 233.93 684.5 232.27 692.36 230.6C700.89 228.79 709.43 227 717.95 225.1C720.21 224.6 721.52 225.12 722.78 227.19C725.11 231.01 727.85 234.58 730.04 239.2C729.07 238.84 727.82 238.75 727.19 238.07C724.58 235.27 722.31 235.87 719.46 237.91C706.75 246.97 693.95 255.9 681.07 264.72C678.36 266.57 677.25 268.34 678.83 271.46C679.31 272.41 679.09 273.71 679.19 274.85C678.84 274.94 678.49 275.04 678.14 275.13C673.92 269.11 669.69 263.08 665.47 257.06C665.73 256.7 665.99 256.34 666.25 255.97C667.43 256.64 668.73 257.17 669.76 258.03C671.28 259.29 672.55 259.77 674.38 258.47C686.18 250.09 698.05 241.8 709.88 233.47C710.02 233.36 710.05 233.06 710.38 232.27Z" fill="black"/>
    <path d="M517.2 91.7593C514.14 98.9693 511.22 105.979 508.18 112.939C507.27 115.029 507.77 116.419 509.5 117.769C510.55 118.589 511.29 119.809 512.16 120.839C511.89 121.099 511.61 121.349 511.34 121.609C504.61 118.759 497.88 115.909 491.15 113.059C491.13 112.689 491.1 112.309 491.08 111.939C492.12 111.769 493.26 111.239 494.17 111.499C497.67 112.509 499.29 111.099 500.62 107.879C506.5 93.5793 512.52 79.3493 518.73 65.1893C520.2 61.8493 520.44 59.3893 517.05 57.2793C516.26 56.7893 515.81 55.7493 515 54.6993C515.97 54.4293 516.38 54.1593 516.63 54.2693C525.04 57.7493 533.44 61.2293 541.81 64.8093C543.4 65.4893 544.89 66.4693 546.33 67.4393C552.73 71.7593 555.11 76.9993 553.6 83.2693C551.8 90.7593 546.6 95.4793 539.08 96.3693C537.11 96.5993 535.12 96.6693 532.27 96.8793C535.94 109.529 533.02 123.589 543.55 134.939C531.64 132.579 528.17 129.059 526.69 118.629C525.79 112.339 525.09 106.009 524.14 99.7293C523.31 94.1593 523.06 93.9893 517.2 91.7593ZM529.1 63.7393C525.51 72.2393 522.15 80.2093 518.67 88.4393C524.97 91.0793 530.92 95.0493 537.3 90.6993C542.55 87.1293 545.24 81.4293 543.93 75.0693C542.38 67.5493 535.43 66.1693 529.1 63.7393Z" fill="black"/>
    <path d="M49.3501 477.26C48.6401 473.47 47.7502 469.71 47.3102 465.89C47.1702 464.69 47.9502 463.1 48.8102 462.11C60.8402 448.09 72.9601 434.14 85.0601 420.17C85.3701 419.81 85.6402 419.4 86.4802 418.28C82.3402 418.93 78.9101 419.4 75.5001 420.01C66.5401 421.64 57.6201 423.46 48.6401 424.92C45.3501 425.45 43.2501 426.38 43.4801 430.18C43.5401 431.19 42.7202 432.25 42.3102 433.28C41.9702 433.25 41.6302 433.21 41.2902 433.18C40.6902 429.98 40.1102 426.77 39.5002 423.57C39.0602 421.24 38.5101 418.93 38.1701 416.59C38.0701 415.92 38.5001 415.16 38.6901 414.45C39.2501 414.79 40.1701 415.02 40.3001 415.47C41.8201 420.78 45.4501 420.19 49.6901 419.37C65.9701 416.2 82.3002 413.28 98.6202 410.29C99.6002 410.11 100.6 410.08 101.63 409.97C103.41 412.1 102.9 413.78 101.15 415.78C88.8202 429.88 76.6001 444.07 64.3501 458.24C63.2401 459.53 62.1802 460.86 60.4802 462.91C67.7802 461.65 74.1201 460.6 80.4501 459.46C87.8201 458.13 95.1402 456.54 102.54 455.41C105.71 454.92 106.8 453.44 106.8 450.48C106.8 449.46 107.33 448.44 107.61 447.42C108.05 447.44 108.48 447.46 108.92 447.48C110.05 453.63 111.18 459.79 112.3 465.94C111.89 466.12 111.49 466.29 111.08 466.47C110.29 465.25 109.32 464.11 108.74 462.8C107.85 460.78 106.59 460 104.35 460.42C87.9102 463.48 71.4601 466.48 55.0002 469.46C52.7902 469.86 51.8601 471.02 51.7101 473.24C51.6101 474.73 50.9801 476.19 50.5901 477.66C50.1701 477.53 49.7601 477.39 49.3501 477.26Z" fill="black"/>
    <path d="M52.7002 506C52.7102 489.32 69.1602 475.53 89.0202 475.56C107.1 475.58 121.82 491.7 121.81 511.45C121.8 528.31 104.98 542.65 85.1802 542.68C67.3802 542.7 52.6802 526.1 52.7002 506ZM93.9802 483.58C85.0502 484.43 75.1802 487.76 66.6902 494.33C57.4802 501.47 55.4902 509.26 59.5802 520.13C62.6002 528.15 67.7202 534.44 76.8802 534.29C91.2902 534.04 104.2 529.29 113.26 517.46C118.96 510.02 117.32 501.92 113.26 494.17C109.58 487.13 103.82 483.42 93.9802 483.58Z" fill="black"/>
    <path d="M63.4702 268.73C65.7602 262.71 68.0402 256.69 70.3302 250.67C70.6602 250.64 70.9902 250.62 71.3202 250.59C71.5402 251.7 72.1402 252.9 71.9102 253.91C71.1402 257.32 72.6102 258.82 75.7002 259.93C84.6202 263.14 93.4902 266.49 102.28 270.05C106.07 271.58 109.83 273.43 113.22 275.7C122.57 281.97 124.94 291.3 120.43 303.54C117.68 311.01 113.79 318.05 105.33 319.76C100.65 320.71 95.2302 320.43 90.6702 319.02C79.7202 315.65 69.0302 311.4 58.3302 307.25C55.0302 305.97 52.7102 305.95 50.9002 309.33C50.4502 310.17 49.3202 310.65 48.5102 311.3C48.2302 311.07 47.9402 310.83 47.6602 310.6C50.3202 303.55 52.9902 296.5 55.6502 289.44C56.0602 289.48 56.4702 289.52 56.8802 289.56C57.0002 291 57.3502 292.46 57.1802 293.86C56.8902 296.22 57.6502 297.52 59.9502 298.36C70.6102 302.25 81.2302 306.28 91.8602 310.26C92.3302 310.43 92.8202 310.52 93.3002 310.67C107.75 315.23 115.07 309.63 117.83 294.82C118.77 289.77 116.92 285.32 112.66 282.38C109.4 280.13 105.89 278.09 102.23 276.61C92.6302 272.73 82.8702 269.27 73.2202 265.51C70.4902 264.45 68.5102 264.59 66.9502 267.37C66.3802 268.38 65.1202 269 64.1702 269.8C63.9302 269.43 63.7002 269.08 63.4702 268.73Z" fill="black"/>
    <path d="M472.36 45.9693C478.77 46.9393 485.18 47.8993 491.59 48.8693C491.65 49.2393 491.7 49.6193 491.76 49.9893C490.78 50.3893 489.79 51.1293 488.81 51.1193C485.29 51.0693 484.25 52.8693 483.8 56.1293C482.3 66.8693 480.67 77.5993 478.68 88.2493C477.3 95.6093 474.45 102.289 467.58 106.549C458.52 112.179 436.07 109.259 430.9 97.0293C428.1 90.4093 428.64 83.6193 429.62 76.7993C431.01 67.1793 432.31 57.5393 433.95 47.9493C434.46 44.9493 433.47 43.5693 430.89 42.5493C429.73 42.0893 428.79 41.1093 427.74 40.3693C427.93 40.0193 428.11 39.6693 428.3 39.3193C435.77 40.4393 443.24 41.5593 450.71 42.6793C450.75 43.1093 450.79 43.5393 450.83 43.9693C449.43 44.3593 448.04 45.0293 446.62 45.0893C444.33 45.1893 443.25 46.1793 442.94 48.3993C441.21 60.6193 439.06 72.7893 437.77 85.0593C436.28 99.2193 447.21 107.909 461.1 104.149C465.21 103.039 468.58 100.579 469.72 96.5393C471.8 89.1393 473.41 81.5893 474.88 74.0393C476.07 67.9293 476.65 61.6993 477.74 55.5593C478.31 52.3293 478 49.9693 474.37 48.9293C473.39 48.6493 472.64 47.5793 471.78 46.8693C471.97 46.5793 472.17 46.2793 472.36 45.9693Z" fill="black"/>
    <path d="M750.701 300.17C752.751 306.26 754.811 312.36 756.861 318.45C756.621 318.7 756.381 318.95 756.141 319.2C755.301 318.53 754.141 318.02 753.691 317.15C752.031 313.91 749.821 313.72 746.601 314.85C737.181 318.15 727.711 321.31 718.161 324.22C710.291 326.61 702.391 327.88 694.601 323.35C685.361 317.98 677.571 296.15 686.401 286.52C689.501 283.14 693.581 280.12 697.811 278.43C708.221 274.27 718.951 270.87 729.621 267.39C733.201 266.23 735.861 264.96 734.791 260.49C734.611 259.72 735.081 258.8 735.251 257.94C735.681 257.89 736.111 257.84 736.531 257.79C738.941 264.96 741.361 272.12 743.771 279.29C743.351 279.53 742.931 279.77 742.521 280.01C741.501 278.78 740.651 277.33 739.401 276.4C738.311 275.59 736.541 274.67 735.461 275.02C723.821 278.76 712.171 282.51 700.711 286.75C694.071 289.2 688.241 293.04 688.151 301.32C687.991 315.27 697.391 323.37 710.801 319.85C722.961 316.65 734.811 312.22 746.721 308.12C747.731 307.77 748.401 305.81 748.801 304.47C749.231 303.04 749.171 301.47 749.321 299.96C749.761 300.03 750.231 300.1 750.701 300.17Z" fill="black"/>
    <path d="M761.63 451.35C760.07 458.65 758.5 465.94 756.94 473.24C756.54 473.29 756.14 473.35 755.75 473.4C755.42 472.34 754.73 471.24 754.82 470.22C755.11 466.89 753.49 465.62 750.44 465.01C738.69 462.68 727.03 459.87 715.24 457.83C701.06 455.38 691.27 466.73 695.05 480.71C696.42 485.79 699.96 488.99 704.69 490.32C714.52 493.09 724.49 495.34 734.41 497.78C736.23 498.23 738.08 498.52 739.89 499C743.99 500.09 748.03 501.21 749.71 495.46C749.86 494.96 750.91 494.73 752.4 493.89C750.82 501.19 749.45 507.5 748.09 513.8C747.66 513.84 747.23 513.89 746.8 513.93C746.48 512.56 745.89 511.19 745.89 509.83C745.9 507.37 744.86 506.35 742.47 505.85C732.7 503.8 722.97 501.57 713.24 499.37C711.42 498.96 709.61 498.46 707.83 497.87C692.39 492.77 686.9 482.48 691.21 466.77C695.05 452.76 703.01 447.39 717.57 449.08C719.8 449.34 722.02 449.75 724.21 450.21C733.24 452.12 742.3 453.93 751.27 456.1C754.82 456.96 757.31 456.76 758.69 452.95C758.99 452.11 759.95 451.51 760.61 450.81C760.94 450.99 761.28 451.17 761.63 451.35Z" fill="black"/>
    <path d="M613.09 123.18C614.13 120.56 615.34 117.99 616.13 115.29C616.42 114.3 616.12 112.51 615.4 111.94C610.55 108.06 605.52 104.4 600.29 100.47C595.2 107.21 590.26 113.76 585.16 120.51C588.89 123.29 592.51 125.92 596.04 128.66C598.15 130.29 599.4 128.73 600.95 127.7C602.21 126.85 603.68 126.3 605.05 125.61C605.29 125.99 605.53 126.38 605.77 126.76C602.13 131.62 598.49 136.48 594.85 141.33C594.49 141.36 594.13 141.39 593.77 141.41C593.68 140.3 593.12 138.89 593.59 138.12C595.92 134.38 594.66 132.02 591.26 129.88C588.43 128.09 585.84 125.91 582.76 123.62C577.46 130.68 572.26 137.6 566.8 144.85C572.37 149.06 577.68 153.16 583.11 157.08C583.78 157.56 585.25 157.45 586.12 157.07C588.74 155.92 591.22 154.44 593.82 153.23C594.77 152.79 595.9 152.72 596.95 152.49C597.11 152.79 597.27 153.1 597.43 153.4C594.06 157.31 590.68 161.23 587.09 165.4C575.16 156.4 563.39 147.52 551.62 138.63C551.76 138.23 551.91 137.83 552.05 137.43C553.41 137.73 554.87 137.81 556.11 138.39C558.46 139.48 559.97 138.92 561.51 136.86C571.22 123.85 580.99 110.89 590.84 97.9901C592.63 95.6501 592.93 93.7301 590.78 91.4801C589.97 90.6301 589.66 89.3001 589.12 88.1901C589.45 87.9901 589.78 87.7801 590.11 87.5801C601.8 96.3801 613.48 105.17 625.54 114.24C621.6 117.75 617.94 121.01 614.27 124.27C613.88 123.92 613.48 123.55 613.09 123.18Z" fill="black"/>
    <path d="M260.941 88.0201C263.561 92.9601 266.221 97.8901 268.771 102.86C269.071 103.44 268.791 104.32 268.781 105.06C268.061 104.93 267.141 105.04 266.661 104.64C261.621 100.38 261.641 100.35 255.841 103.38C253.631 104.53 251.431 105.71 249.241 106.9C249.041 107.01 248.901 107.26 248.431 107.78C252.401 115.3 256.441 122.97 260.631 130.92C266.861 127.68 272.831 124.65 278.701 121.43C279.421 121.04 279.901 119.65 279.941 118.69C280.051 115.95 279.841 113.2 279.851 110.46C279.851 109.32 280.091 108.17 280.221 107.03C280.601 106.95 280.971 106.87 281.351 106.79C283.491 111.54 285.641 116.3 287.851 121.2C286.971 121.79 286.301 122.32 285.551 122.71C274.061 128.75 262.581 134.78 251.061 140.75C250.211 141.19 249.101 141.12 248.111 141.29C248.541 140.39 248.721 139.15 249.431 138.65C252.601 136.43 252.171 134.07 250.541 131.03C243.181 117.28 235.931 103.48 228.831 89.6001C227.341 86.6801 225.651 85.4601 222.421 86.4201C221.341 86.7401 220.071 86.4701 218.891 86.4701C218.881 86.0901 218.861 85.7001 218.851 85.3201C231.761 78.5701 244.661 71.8201 258.031 64.8301C259.381 69.7701 261.651 74.2901 261.891 79.3301C261.581 79.5001 261.261 79.6801 260.951 79.8501C259.041 77.8201 257.261 75.6301 255.151 73.8301C254.291 73.1001 252.431 72.5801 251.531 73.0101C246.031 75.6501 240.681 78.5901 234.841 81.6601C238.741 89.1001 242.571 96.4201 246.491 103.92C250.661 101.71 254.451 99.5701 258.371 97.6701C261.271 96.2701 259.741 94.1501 259.641 92.1901C259.571 90.8101 259.711 89.4201 259.751 88.0401C260.141 88.0401 260.541 88.0301 260.941 88.0201Z" fill="black"/>
    <path d="M702.88 390.47C703.38 391.8 704.14 393.09 704.34 394.47C704.69 396.9 705.91 397.87 708.3 397.98C724.9 398.78 741.5 399.61 758.09 400.53C760.56 400.67 761.74 399.72 762.37 397.44C762.72 396.17 763.58 395.04 764.2 393.85C764.61 393.96 765.01 394.07 765.42 394.18C764.67 408.73 763.92 423.28 763.15 438.36C758.03 437.1 753.34 435.94 748.65 434.79C748.63 434.28 748.6 433.78 748.58 433.27C752.03 432.44 755.47 431.62 759.33 430.69C759.69 423.94 760.06 417.13 760.45 409.78C752.06 409.34 743.91 408.91 735.46 408.46C735.17 413.26 734.67 417.71 734.8 422.15C734.83 423.27 736.76 424.49 738.03 425.36C739.32 426.26 740.87 426.79 742.31 427.48C742.14 427.98 741.97 428.48 741.8 428.98C735.66 428.66 729.52 428.35 723.38 428.03C723.2 427.67 723.02 427.3 722.84 426.94C723.92 426.32 724.94 425.28 726.07 425.15C729.53 424.76 731.06 423.27 730.91 419.59C730.76 416 731.3 412.39 731.58 408.17C722.69 407.73 714.05 407.31 704.9 406.85C704.51 414.03 704.09 420.83 703.86 427.64C703.84 428.32 704.86 429.24 705.61 429.7C708.06 431.19 710.66 432.44 713.1 433.94C714 434.5 714.64 435.49 714.94 437C709.8 436.37 704.66 435.75 699.19 435.08C700.01 420.13 700.81 405.48 701.61 390.82C702.01 390.71 702.45 390.59 702.88 390.47Z" fill="black"/>
    <path d="M763.49 380.2C758 379.95 753.01 379.81 748.17 378.67C748.18 378.24 748.19 377.81 748.2 377.37C750.84 376.34 753.43 375.08 756.15 374.34C758.6 373.67 759.8 372.26 759.73 369.91C759.63 366.7 759.67 363.41 758.93 360.32C757.95 356.2 755.27 353.19 750.84 352.47C746.31 351.74 742.31 353 739.68 356.93C738.17 359.18 737.01 361.7 735.99 364.22C734.31 368.38 733.04 372.7 731.3 376.83C728.68 383.04 724.14 386.99 717.15 387.42C710.07 387.86 704.97 384.58 701.34 378.69C696.55 370.92 694.91 355.69 698.01 347.59C704.89 346.98 712.48 347.86 714.31 349.82C710.7 351.17 707.22 352.32 703.88 353.82C702.72 354.34 701.1 355.76 701.13 356.72C701.31 361.62 701.01 366.86 702.66 371.32C705.6 379.24 716.24 380.27 721.18 373.35C723.37 370.28 724.54 366.46 726.07 362.93C727.9 358.71 729.14 354.16 731.49 350.27C737.67 340.03 751.84 339.77 758.25 349.81C760.47 353.29 761.86 357.46 762.89 361.5C763.77 364.95 763.7 368.66 763.83 372.26C763.92 374.72 763.63 377.2 763.49 380.2Z" fill="black"/>
    <path d="M214.851 714.47C215.391 711.93 216.411 711.56 218.601 712.49C223.551 714.59 224.711 714.1 227.341 709.48C234.431 697 241.491 684.51 248.551 672.02C251.111 667.49 250.991 666.24 247.141 662.6C245.591 661.13 244.471 659.94 246.971 658.01C254.631 662.33 262.411 666.73 270.221 671.13C269.831 673.46 269.041 674.15 266.681 673.29C261.011 671.23 259.921 671.75 257.031 676.85C250.141 689.01 243.231 701.16 236.421 713.36C233.141 719.22 233.871 720.23 239.331 724.25C248.131 730.73 256.291 730.31 264.361 723.3C265.961 721.91 267.461 721.17 269.381 723.39C265.981 728.55 262.511 733.82 258.871 739.34C244.031 730.95 229.421 722.69 214.851 714.47Z" fill="black"/>
    <path d="M420.5 721.92C421.43 721.15 422.26 719.91 423.31 719.68C427.32 718.8 431.4 718.24 436.16 717.45C436.6 721.27 437.07 725.01 437.46 728.75C438.2 735.94 438.78 743.15 439.66 750.33C440.33 755.82 443.78 758.91 448.11 758.34C454.39 757.52 458.75 752.61 458.16 747.22C457.43 740.53 456.83 733.82 456.22 727.12C455.75 721.99 454.38 720.72 449.29 720.35C448.26 720.28 447.29 719.29 446.29 718.73C446.43 718.33 446.57 717.93 446.71 717.54C452.18 716.65 457.66 715.76 463.57 714.8C464.4 723.14 465.2 731.04 465.98 738.94C466.35 742.66 466.63 746.39 467.03 750.11C467.39 753.49 468.94 755.68 472.73 755.76C473.44 755.77 474.13 756.67 474.83 757.16C474.39 757.78 474.04 758.85 473.5 758.95C469.01 759.78 464.48 760.43 459.69 761.18C459.41 759.16 459.2 757.6 458.91 755.49C457.97 756.29 457.32 756.91 456.61 757.43C454.21 759.18 452.01 761.44 449.33 762.51C440.18 766.18 433.04 762.3 431.36 752.55C430.11 745.32 429.75 737.94 428.89 730.64C428.15 724.37 427.45 723.73 421.48 722.99C421.15 722.64 420.82 722.28 420.5 721.92Z" fill="black"/>
    <path d="M332.49 44.4199C332.87 49.8599 333.22 54.8699 333.56 59.8799C333.09 60.0799 332.61 60.2799 332.14 60.4699C330.85 58.4199 329.22 56.4999 328.33 54.2899C326.69 50.1999 324.11 49.3799 319.89 50.0799C303.44 52.8099 295.4 64.1899 298.62 80.7499C301.42 95.1899 309.11 104.35 320.49 106.31C329.03 107.78 336.79 105.17 344.13 101C345.1 100.45 346.05 99.8399 347.03 99.2999C347.22 99.1999 347.51 99.2899 348.83 99.2899C347.86 100.83 347.35 102.03 346.5 102.91C337.19 112.55 320.38 116.13 308.35 111.1C296.2 106.02 288.34 92.6399 288.83 77.5799C289.23 65.1299 295.82 56.4799 306.32 50.6599C314.22 46.2599 322.99 44.8899 332.49 44.4199Z" fill="black"/>
    <path d="M414.52 37.9795C413.66 43.8295 412.86 49.2995 412.06 54.7795C411.56 54.7795 411.07 54.7695 410.57 54.7695C409.58 51.4995 408.71 48.1895 407.51 44.9995C407.14 44.0095 405.88 42.6695 405.01 42.6695C400.53 42.6295 396.05 42.9695 391.04 43.2095C391.04 44.8695 390.98 46.4295 391.05 47.9795C391.76 63.8195 392.55 79.6495 393.18 95.4895C393.28 97.9495 394.2 99.0595 396.57 99.5095C398.35 99.8495 400.04 100.689 401.78 101.299C401.66 101.859 401.53 102.409 401.41 102.969C393.27 102.969 385.12 102.969 375.87 102.969C377.47 101.989 378.43 100.969 379.52 100.799C383.66 100.159 384.45 97.7995 384.23 93.9395C383.29 77.3795 382.62 60.7995 381.83 43.5795C376.81 43.8395 371.87 44.0195 366.96 44.4295C366.32 44.4795 365.51 45.5995 365.25 46.3795C364.37 48.9695 363.77 51.6595 362.91 54.2595C362.57 55.2895 361.85 56.1995 361.31 57.1595C361 57.0795 360.69 57.0095 360.38 56.9295C359.76 51.5895 359.13 46.2495 358.46 40.5095C377.18 39.6595 395.46 38.8395 414.52 37.9795Z" fill="black"/>
    <path d="M167.41 122.55C173.33 118.04 179.24 113.52 185.16 109.01C185.51 109.18 185.86 109.35 186.2 109.53C185.74 110.6 185.51 111.9 184.77 112.71C182.61 115.06 182.77 116.96 184.74 119.51C195.2 133.03 205.48 146.69 216.12 160.7C221.89 156.31 227.47 152.17 232.86 147.81C233.52 147.28 233.48 145.53 233.32 144.42C232.92 141.71 232.19 139.05 231.73 136.35C231.54 135.26 231.7 134.11 231.7 132.99C232.07 132.86 232.44 132.72 232.81 132.59C235.79 137.06 238.78 141.53 241.97 146.31C229.97 155.42 218.08 164.43 206.2 173.45C205.85 173.27 205.5 173.1 205.15 172.92C205.62 171.85 205.86 170.56 206.62 169.76C208.84 167.41 208.58 165.5 206.63 162.98C197.07 150.64 187.61 138.22 178.3 125.7C176.12 122.76 174.04 121.43 170.56 123.33C169.77 123.76 168.66 123.6 167.7 123.71C167.59 123.32 167.5 122.93 167.41 122.55Z" fill="black"/>
    <path d="M557.241 704.369C547.981 708.289 538.941 712.119 529.921 715.939C533.401 725.039 539.351 730.199 545.891 729.969C553.221 729.709 556.881 726.109 560.041 715.879C561.051 715.969 562.111 716.059 563.151 716.149C562.801 725.049 557.681 731.869 549.281 734.899C540.971 737.889 533.131 735.789 526.931 728.919C518.661 719.759 517.251 706.149 523.641 697.159C531.981 685.419 548.121 686.429 554.791 699.129C555.661 700.749 556.361 702.459 557.241 704.369ZM528.621 712.179C534.941 709.499 541.051 706.919 547.151 704.329C543.081 694.769 538.361 691.639 532.531 694.309C526.711 696.979 524.921 704.689 528.621 712.179Z" fill="black"/>
    <path d="M315.11 732.989C305.66 729.809 296.48 726.719 287.31 723.639C283.57 729.929 284.27 739.459 288.76 743.849C294.37 749.349 300.17 749.249 309.47 743.349C310.15 744.089 310.86 744.859 311.5 745.559C311.34 746.009 311.32 746.309 311.17 746.449C303.7 753.089 294.54 754.059 285.93 749.129C278.2 744.709 274.5 735.939 276.57 726.199C278.77 715.889 283.99 707.959 294.89 705.259C308.15 701.969 319.75 713.149 316.94 726.399C316.48 728.579 315.75 730.689 315.11 732.989ZM307.37 726.239C311.01 717.799 309.59 711.309 303.83 709.239C297.46 706.949 290.75 711.489 288.5 719.809C294.71 721.929 300.93 724.049 307.37 726.239Z" fill="black"/>
    <path d="M598.22 679.61C589.76 685.04 581.61 690.28 573.47 695.51C577.04 703.38 584.77 708.43 591.42 706.65C599.75 704.42 602.92 699.9 602.62 690.65C603.64 690.53 604.69 690.4 605.84 690.26C606.02 690.89 606.25 691.34 606.27 691.81C606.72 701.07 601.79 708.65 592.97 712.3C584.61 715.76 575.98 713.52 569.13 705.72C562.44 698.1 559.6 689.39 563.31 679.45C566.03 672.17 572 668.58 579.23 667.42C586.09 666.32 591.16 669.97 595.15 675.26C596.12 676.55 597.01 677.9 598.22 679.61ZM571.27 692.21C577.06 688.5 582.68 684.89 588.3 681.29C582.32 672.52 577.46 670.36 572.19 673.88C566.82 677.47 566.3 685.11 571.27 692.21Z" fill="black"/>
    <path d="M498.31 704.929C499.56 703.839 500.82 702.759 502.51 701.279C504.43 706.429 506.06 710.819 507.68 715.169C505.7 716.589 504.63 716.209 503.3 714.409C499.28 708.979 493.65 707.589 488.17 710.349C485.49 711.699 483.77 713.789 484.14 716.889C484.51 719.989 486.2 722.409 489.47 722.809C493.91 723.359 498.41 723.459 502.88 723.869C510.68 724.579 514.77 727.869 516.06 734.339C517.24 740.269 514.23 746.079 508.17 749.509C503.14 752.359 497.77 752.739 492.53 751.619C491.2 753.009 490.01 754.259 488.3 756.039C486.47 750.929 484.91 746.759 483.54 742.529C483.32 741.849 483.94 740.889 484.18 740.059C485.03 740.309 486.05 740.339 486.7 740.849C489.12 742.759 491.21 745.189 493.82 746.739C498.01 749.229 502.47 748.779 506.66 746.399C509.41 744.829 510.7 742.399 510.22 739.189C509.75 736.059 508.08 733.819 504.93 733.139C502.63 732.639 500.25 732.539 497.89 732.339C494.91 732.089 491.89 732.139 488.95 731.689C483.03 730.779 479.4 727.249 478.29 721.689C477.3 716.769 479.43 711.059 484.3 708.669C488.63 706.539 493.56 705.619 498.23 704.169C498.26 704.419 498.29 704.679 498.31 704.929Z" fill="black"/>
    <path d="M36.3008 389.519C37.2008 382.279 38.1008 375.029 39.0008 367.789C39.3408 367.759 39.6908 367.729 40.0308 367.699C40.4308 368.359 41.1908 369.029 41.1808 369.679C41.1308 374.009 43.6808 374.759 47.4008 375.159C62.9008 376.839 78.3708 378.789 93.8408 380.749C96.6808 381.109 98.7008 380.739 99.5708 377.629C99.8608 376.599 100.721 375.739 101.321 374.799C101.721 374.939 102.121 375.079 102.521 375.219C101.671 382.589 100.811 389.949 99.9608 397.319C99.5608 397.399 99.1608 397.479 98.7708 397.549C98.3808 396.499 97.7808 395.479 97.6408 394.399C97.2708 391.489 96.2508 389.929 92.8408 389.559C77.2108 387.889 61.6208 385.939 46.0308 383.909C42.3708 383.429 40.0408 384.209 39.0608 388.009C38.8508 388.839 37.8608 389.459 37.2308 390.179C36.9208 389.959 36.6108 389.739 36.3008 389.519Z" fill="black"/>
    <path d="M107.04 613.679C103.2 607.479 99.3703 601.279 95.5303 595.079C95.7203 594.769 95.9103 594.459 96.0903 594.149C97.0503 594.609 98.2703 594.849 98.9403 595.579C101.02 597.849 102.92 597.769 105.47 596.169C119.1 587.599 132.78 579.129 146.54 570.769C149.11 569.209 150.14 567.629 148.92 564.719C148.53 563.789 148.86 562.559 148.86 561.469C149.19 561.389 149.53 561.319 149.86 561.239C153.72 567.409 157.58 573.579 161.44 579.739C161.3 580.059 161.16 580.379 161.01 580.699C160.06 580.309 158.81 580.179 158.23 579.489C155.67 576.439 153.3 576.969 150.21 578.929C137.25 587.149 124.18 595.199 111.05 603.149C108.1 604.939 106.48 606.719 108.05 610.289C108.46 611.219 107.99 612.539 107.92 613.669C107.64 613.679 107.34 613.679 107.04 613.679Z" fill="black"/>
    <path d="M79.29 228.14C84.11 222.63 86.89 215.52 92.51 210.63C91.68 217.8 91.68 217.8 97.88 221.91C109.96 229.91 122.07 237.84 134.07 245.95C136.89 247.85 139.21 248.81 141.79 245.76C142.33 245.12 143.51 245.03 144.4 244.69C144.58 244.95 144.76 245.21 144.95 245.47C140.89 251.61 136.83 257.74 132.76 263.88C132.44 263.84 132.12 263.79 131.81 263.75C131.81 262.63 131.44 261.33 131.88 260.42C133.48 257.1 132.21 255.32 129.34 253.46C116.25 244.97 103.24 236.33 90.32 227.57C87.49 225.65 85.31 225.24 82.86 227.94C82.18 228.69 80.91 228.9 79.91 229.36C79.7 228.96 79.49 228.55 79.29 228.14Z" fill="black"/>
    <path d="M117.62 223.169C129.86 222.349 141.68 221.699 153.47 220.649C155.75 220.449 157.89 218.689 160.08 217.609C161.16 217.079 162.2 216.46 163.25 215.88C163.49 216.16 163.72 216.439 163.96 216.719C161.12 221.019 158.31 225.34 155.41 229.6C155.16 229.97 154.33 230.07 153.77 230.1C142.06 230.66 130.35 231.109 118.65 231.799C115.69 231.969 114.63 231.069 113.96 228.169C112.03 219.679 109.7 211.279 107.46 202.859C106.96 200.989 106.18 199.189 105.4 197.029C103.13 198.269 101.34 199.239 99.5601 200.219C99.3301 199.879 99.1001 199.529 98.8701 199.189C102.58 193.619 106.3 188.049 110.01 182.479C110.37 182.589 110.72 182.699 111.08 182.809C111 183.869 110.9 184.93 110.84 185.99C110.68 188.68 109.95 191.499 110.5 194.029C112.6 203.609 115.12 213.089 117.62 223.169Z" fill="black"/>
    <path d="M131.8 532.029C134.29 536.019 136.85 539.979 139.22 544.049C139.68 544.829 139.69 546.199 139.34 547.079C135.03 557.959 130.53 568.769 126.29 579.679C125.31 582.209 124.13 582.689 121.59 582.179C112.91 580.439 104.19 578.909 95.4703 577.399C93.5603 577.069 91.5903 577.119 89.3403 576.969C89.4803 579.489 89.5803 581.479 89.6903 583.459C89.2703 583.499 88.8503 583.539 88.4303 583.579C84.9603 577.869 81.4903 572.159 77.8203 566.119C79.1503 565.899 79.5003 565.749 79.5903 565.839C84.1003 570.629 90.1803 571.519 96.2103 572.609C102.71 573.779 109.21 574.979 115.68 576.279C117.47 576.639 118.35 576.269 119.04 574.459C122.86 564.319 126.98 554.289 130.62 544.089C131.48 541.689 130.92 538.769 130.92 536.089C130.92 534.799 130.73 533.509 130.63 532.219C131.01 532.139 131.41 532.089 131.8 532.029Z" fill="black"/>
    <path d="M68.0904 367.669C78.4604 361.589 88.5504 355.869 98.4004 349.759C100.56 348.419 101.89 345.719 103.56 343.619C104.29 342.699 104.93 341.709 105.61 340.749C105.93 340.899 106.25 341.039 106.57 341.189C106.03 346.059 105.54 350.939 104.88 355.799C104.79 356.479 103.97 357.259 103.3 357.639C92.5704 363.749 81.8104 369.799 71.0604 375.849C70.6404 376.089 70.1804 376.249 69.6304 376.489C61.7004 367.539 53.8204 358.639 45.6304 349.399C43.9404 351.919 42.8904 353.499 41.8304 355.079C41.4404 354.919 41.0504 354.769 40.6504 354.609C41.4204 348.009 42.1904 341.399 42.9604 334.799C43.3604 334.739 43.7604 334.679 44.1604 334.609C44.5304 335.479 44.9204 336.349 45.2704 337.219C46.2304 339.619 46.6604 342.439 48.2104 344.349C54.5704 352.179 61.2704 359.739 68.0904 367.669Z" fill="black"/>
    <path d="M534.59 669.51C533.89 671.24 533.49 672.56 532.85 673.74C530.41 678.24 527.95 682.73 525.36 687.13C524.92 687.88 523.76 688.21 522.93 688.74C522.8 687.85 522.43 686.91 522.58 686.07C523.42 681.15 524.23 676.22 525.37 671.37C525.77 669.67 526.76 667.84 528.04 666.7C528.9 665.94 530.98 665.79 532.1 666.29C533.21 666.79 533.82 668.44 534.59 669.51Z" fill="black"/>
    <path d="M337.33 691.23C333.7 697.56 330.3 703.34 327.05 709.2C325.5 712 323.9 710.47 321.92 709.63C324.91 702.76 327.82 696.09 330.86 689.1C332.99 689.8 334.94 690.44 337.33 691.23Z" fill="black"/>
    <path d="M132.25 400.799C132.17 253.539 252.05 133.709 399.57 133.609C547.01 133.509 666.83 252.989 666.96 400.589C667.09 548.239 547.55 667.829 399.6 667.879C252.07 667.939 132.33 548.239 132.25 400.799ZM564.73 604.429C564.64 604.109 564.56 603.789 564.47 603.469C563.15 603.469 561.82 603.469 560.5 603.469C492.76 603.469 425.02 603.489 357.28 603.389C355.29 603.389 351.52 605.019 351.59 601.449C351.65 598.389 355.25 599.799 357.23 599.789C426.98 599.709 496.73 599.729 566.48 599.699C567.92 599.699 569.78 599.769 570.73 598.969C575.82 594.649 580.69 590.049 585.64 585.549C585.52 585.279 585.41 585.009 585.29 584.739C583.85 584.739 582.42 584.739 580.98 584.739C504.11 584.739 427.23 584.749 350.36 584.659C348.93 584.659 347.51 583.509 346.08 582.899C347.48 582.259 348.88 581.089 350.29 581.069C361.41 580.919 372.54 580.989 383.66 580.989C451.16 580.989 518.66 580.989 586.16 580.959C587.59 580.959 589.54 581.009 590.36 580.169C594.59 575.849 598.54 571.249 603.25 565.999C600.75 565.999 599.31 565.999 597.86 565.999C517.61 565.999 437.36 565.999 357.11 565.999C355.99 565.999 354.79 566.229 353.76 565.919C352.86 565.649 352.13 564.779 351.33 564.179C352.1 563.539 352.81 562.489 353.66 562.349C355.49 562.069 357.4 562.249 359.27 562.249C440.27 562.249 521.27 562.249 602.27 562.219C603.69 562.219 605.73 562.269 606.42 561.429C610.01 557.059 613.26 552.409 617.07 547.269C615.18 547.269 614.21 547.269 613.23 547.269C565.98 547.269 518.73 547.269 471.48 547.269C435.73 547.269 399.98 547.289 364.23 547.189C362.93 547.189 361.62 546.049 360.32 545.439C361.59 544.799 362.83 544.059 364.16 543.559C364.82 543.309 365.64 543.519 366.39 543.519C407.64 543.519 448.89 543.519 490.14 543.519C532.01 543.519 573.89 543.529 615.76 543.479C617.15 543.479 619.21 543.399 619.8 542.559C622.82 538.219 625.45 533.619 628.57 528.529C626.22 528.529 624.74 528.529 623.27 528.529C540.9 528.529 458.52 528.539 376.15 528.479C374.3 528.479 370.99 529.739 371.03 526.629C371.07 523.599 374.36 524.839 376.23 524.839C459.48 524.779 542.73 524.789 625.98 524.789C626.98 524.789 627.99 524.879 628.98 524.749C629.65 524.659 630.64 524.459 630.89 523.989C633.29 519.439 635.57 514.829 638.1 509.799C635.78 509.799 634.29 509.799 632.79 509.799C552.04 509.799 471.29 509.809 390.54 509.729C388.47 509.729 384.61 511.249 384.62 508.029C384.63 504.469 388.59 506.139 390.73 506.139C472.1 506.049 553.48 506.059 634.85 506.059C635.97 506.059 637.11 506.159 638.22 506.009C638.86 505.919 639.79 505.579 640 505.089C641.94 500.589 643.76 496.039 645.78 491.069C643.48 491.069 641.99 491.069 640.5 491.069C563 491.069 485.5 491.079 408 491.019C406.26 491.019 403.55 492.189 403.32 489.119C403.28 488.639 406.45 487.399 408.13 487.399C486.25 487.309 564.38 487.319 642.5 487.319C643.5 487.319 644.52 487.429 645.49 487.269C646.14 487.169 647.12 486.819 647.28 486.349C648.84 481.839 650.26 477.279 651.85 472.329C649.61 472.329 648.12 472.329 646.63 472.329C578.01 472.329 509.38 472.339 440.76 472.279C438.89 472.279 435.61 473.539 435.53 470.529C435.45 467.389 438.77 468.639 440.62 468.639C509.74 468.579 578.87 468.589 647.99 468.589C648.99 468.589 650.04 468.769 650.98 468.529C651.8 468.319 653 467.769 653.17 467.129C654.29 462.999 655.18 458.819 656.21 454.349C654.11 454.349 652.62 454.349 651.13 454.349C596.88 454.349 542.63 454.349 488.38 454.349C487.5 454.349 486.55 454.569 485.77 454.299C484.64 453.899 483.63 453.149 482.57 452.549C483.58 451.899 484.53 451.059 485.64 450.669C486.53 450.359 487.62 450.609 488.62 450.609C543.24 450.609 597.87 450.609 652.49 450.609C653.96 450.609 655.42 450.609 657.04 450.609C657.83 445.709 658.55 441.219 659.33 436.369C657.38 436.369 655.9 436.369 654.41 436.369C611.41 436.369 568.41 436.389 525.41 436.289C523.88 436.289 522.35 435.109 520.82 434.479C522.37 433.859 523.89 433.139 525.48 432.669C526.28 432.429 527.22 432.629 528.09 432.629C570.46 432.629 612.84 432.629 655.21 432.629C656.66 432.629 658.11 432.629 659.94 432.629C660.37 427.189 660.77 422.179 661.19 416.889C659.09 416.889 657.6 416.889 656.12 416.889C623.87 416.889 591.62 416.889 559.37 416.889C558.37 416.889 557.3 417.099 556.39 416.819C555.46 416.539 554.69 415.759 553.85 415.199C554.69 414.519 555.44 413.589 556.41 413.219C557.28 412.879 558.38 413.139 559.38 413.139C591.88 413.139 624.38 413.139 656.88 413.139C658.32 413.139 659.77 413.139 661.47 413.139C661.47 407.929 661.47 403.249 661.47 398.149C660.03 398.149 658.69 398.149 657.35 398.149C632.85 398.149 608.35 398.149 583.85 398.149C582.97 398.149 582 398.389 581.25 398.079C580.27 397.679 579.46 396.839 578.58 396.189C579.52 395.589 580.4 394.829 581.42 394.459C582.19 394.179 583.15 394.399 584.02 394.399C608.39 394.399 632.77 394.399 657.14 394.399C658.57 394.399 660.01 394.399 661.75 394.399C661.42 389.069 661.12 384.389 660.81 379.409C659.11 379.409 657.76 379.409 656.41 379.409C639.16 379.409 621.91 379.409 604.66 379.409C603.78 379.409 602.83 379.629 602.06 379.339C601.15 378.999 600.4 378.229 599.57 377.649C600.44 376.989 601.24 376.139 602.21 375.729C602.95 375.419 603.93 375.659 604.81 375.659C621.93 375.659 639.06 375.659 656.18 375.659C657.52 375.659 658.86 375.659 660.57 375.659C659.93 370.639 659.35 366.119 658.74 361.419C657 361.419 655.64 361.419 654.27 361.419C642.27 361.419 630.27 361.479 618.27 361.329C617.03 361.309 615.8 360.079 614.56 359.409C615.76 358.829 616.96 357.769 618.17 357.749C627.17 357.609 636.17 357.669 645.17 357.669C649.39 357.669 653.61 357.669 658.09 357.669C657.78 355.909 657.53 354.569 657.3 353.229C655.5 342.689 655.5 342.689 644.96 342.689C639.46 342.689 633.96 342.799 628.46 342.599C627.3 342.559 626.17 341.399 625.03 340.759C626.21 340.149 627.35 339.389 628.6 338.999C629.51 338.719 630.58 338.939 631.58 338.939C639.04 338.939 646.51 338.939 654.33 338.939C653.58 336.109 652.97 333.709 652.3 331.319C651.61 328.859 650.85 326.409 650.12 323.949C644.61 323.949 639.48 324.069 634.37 323.859C633.24 323.809 632.15 322.609 631.05 321.939C632.13 321.359 633.2 320.329 634.3 320.289C639.03 320.109 643.78 320.209 648.8 320.209C648.44 318.899 648.21 317.829 647.86 316.799C631.14 268.049 602.52 227.679 562.31 195.439C559.91 193.509 557.55 192.759 554.51 192.759C450.64 192.829 346.76 192.809 242.89 192.829C241.92 192.829 240.66 192.669 240.02 193.179C234.04 197.939 228.16 202.829 222.26 207.679C222.41 207.969 222.56 208.259 222.72 208.549C224.06 208.549 225.39 208.549 226.73 208.549C291.6 208.549 356.48 208.549 421.35 208.549C422.35 208.549 423.43 208.319 424.33 208.619C425.35 208.959 426.21 209.779 427.14 210.389C426.26 211.019 425.45 211.879 424.47 212.229C423.58 212.539 422.49 212.299 421.49 212.299C354.74 212.299 287.99 212.299 221.24 212.329C219.81 212.329 217.9 212.279 217.02 213.109C212.7 217.169 208.64 221.529 203.75 226.539C206.27 226.539 207.7 226.539 209.14 226.539C270.76 226.539 332.39 226.519 394.01 226.609C395.97 226.609 399.67 227.949 399.63 228.229C399.07 231.919 395.97 230.199 393.99 230.199C330.74 230.299 267.49 230.279 204.24 230.319C202.83 230.319 200.86 230.329 200.1 231.179C196.25 235.499 192.72 240.099 188.52 245.279C190.97 245.279 192.43 245.279 193.88 245.279C251.38 245.279 308.88 245.279 366.38 245.279C367.38 245.279 368.47 245.019 369.36 245.339C370.56 245.779 371.59 246.659 372.69 247.349C371.6 247.909 370.55 248.609 369.4 248.969C368.61 249.219 367.67 249.019 366.79 249.019C307.67 249.019 248.54 249.019 189.42 249.049C188.13 249.049 186.22 249.029 185.65 249.799C182.36 254.239 179.38 258.909 175.96 263.999C178.36 263.999 179.85 263.999 181.35 263.999C237.22 263.999 293.1 263.999 348.97 263.999C350.09 263.999 351.28 263.789 352.33 264.079C353.25 264.339 354.01 265.179 354.85 265.759C353.99 266.419 353.21 267.309 352.24 267.669C351.36 267.999 350.27 267.739 349.27 267.739C303.52 267.739 257.77 267.739 212.02 267.739C200.27 267.739 188.52 267.719 176.77 267.779C175.63 267.789 173.9 267.949 173.46 268.659C170.74 273.069 168.31 277.659 165.49 282.729C167.74 282.729 169.21 282.729 170.68 282.729C224.55 282.729 278.43 282.729 332.3 282.729C333.55 282.729 334.87 282.529 336.02 282.879C336.74 283.089 337.46 284.089 337.66 284.869C337.75 285.229 336.68 286.169 335.99 286.379C335.07 286.649 334.01 286.479 333.01 286.479C312.76 286.479 292.51 286.479 272.26 286.479C237.26 286.479 202.26 286.469 167.26 286.519C165.9 286.519 163.76 286.769 163.32 287.599C161.03 291.949 159.17 296.529 156.96 301.459C159.19 301.459 160.68 301.459 162.17 301.459C215.54 301.459 268.92 301.459 322.29 301.459C323.41 301.459 324.62 301.259 325.64 301.589C326.41 301.839 326.95 302.789 327.59 303.439C326.9 304.029 326.3 304.869 325.51 305.129C324.61 305.429 323.53 305.209 322.53 305.209C268.41 305.209 214.28 305.209 160.16 305.209C158.67 305.209 157.19 305.209 155.44 305.209C153.7 310.179 152.01 315.019 150.2 320.199C174.46 320.199 198.08 320.199 221.7 320.199C222.82 320.199 224.01 320.049 225.05 320.359C225.71 320.559 226.56 321.479 226.57 322.099C226.58 322.689 225.72 323.589 225.06 323.819C224.16 324.129 223.09 323.949 222.09 323.949C198.84 323.949 175.59 323.949 152.34 323.949C151.24 323.949 150.14 323.949 148.96 323.949C147.58 328.979 146.26 333.759 144.83 338.939C146.59 338.939 147.94 338.939 149.29 338.939C174.54 338.939 199.79 338.939 225.04 338.939C226.04 338.939 227.12 338.719 228.02 339.019C228.92 339.329 229.65 340.169 230.45 340.769C229.69 341.399 229.02 342.249 228.15 342.609C227.4 342.919 226.43 342.679 225.55 342.679C206.43 342.679 187.3 342.679 168.18 342.679C161.06 342.679 153.93 342.609 146.81 342.759C145.74 342.779 143.95 343.619 143.75 344.399C142.66 348.659 141.96 353.029 141.07 357.689C144.37 357.689 147.13 357.519 149.84 357.789C150.74 357.879 151.52 359.089 152.36 359.779C151.51 360.329 150.69 361.289 149.82 361.339C146.75 361.529 143.66 361.419 140.51 361.419C137.98 378.789 136.91 395.779 137.86 413.139C140.49 413.139 142.75 412.939 144.96 413.229C145.89 413.349 146.68 414.499 147.53 415.179C146.7 415.739 145.92 416.699 145.04 416.789C142.85 417.019 140.62 416.869 137.99 416.869C138.49 422.379 138.94 427.399 139.41 432.609C141.26 432.609 142.63 432.609 143.99 432.609C148.86 432.609 153.74 432.519 158.61 432.709C159.51 432.749 160.35 433.969 161.22 434.639C160.39 435.209 159.63 436.029 158.71 436.279C157.66 436.569 156.48 436.349 155.35 436.349C150.3 436.349 145.25 436.349 139.85 436.349C140.72 441.459 141.49 445.949 142.28 450.589C144.04 450.589 145.41 450.589 146.77 450.589C163.39 450.589 180.02 450.549 196.64 450.679C197.86 450.689 199.07 451.989 200.29 452.689C199.07 453.239 197.85 454.249 196.62 454.259C182.75 454.369 168.87 454.329 155 454.329C151.14 454.329 147.29 454.329 143.01 454.329C144.17 459.279 145.24 463.839 146.34 468.569C148.13 468.569 149.62 468.569 151.11 468.569C181.36 468.569 211.61 468.569 241.86 468.569C242.98 468.569 244.17 468.419 245.21 468.719C245.88 468.909 246.92 469.979 246.8 470.349C246.56 471.099 245.77 471.929 245.01 472.209C244.13 472.529 243.04 472.319 242.04 472.319C212.04 472.319 182.04 472.319 152.04 472.319C150.7 472.319 149.35 472.319 147.43 472.319C148.72 476.469 150.01 480.089 150.96 483.799C151.66 486.539 153.02 487.379 155.9 487.379C194.65 487.269 233.4 487.309 272.15 487.309C273.27 487.309 274.48 487.069 275.5 487.409C276.37 487.689 277.01 488.639 277.76 489.299C276.96 489.879 276.23 490.699 275.33 490.989C274.42 491.279 273.35 491.059 272.35 491.059C234.35 491.059 196.35 491.059 158.35 491.059C156.92 491.059 155.5 491.059 153.55 491.059C155.13 495.129 156.62 498.549 157.77 502.069C158.75 505.089 160.33 506.149 163.68 506.139C200.43 505.989 237.18 506.049 273.93 506.049C274.93 506.049 276.03 505.799 276.9 506.129C277.88 506.499 278.66 507.409 279.52 508.079C278.7 508.649 277.95 509.449 277.04 509.729C276.13 510.019 275.06 509.799 274.06 509.799C237.94 509.799 201.81 509.799 165.69 509.799C164.39 509.799 163.08 509.799 161.17 509.799C163.35 514.169 165.38 517.869 167.05 521.729C168.1 524.159 169.58 524.849 172.17 524.839C205.79 524.749 239.42 524.779 273.04 524.779C274.16 524.779 275.35 524.629 276.39 524.949C277.03 525.149 277.85 526.119 277.84 526.729C277.83 527.319 276.96 528.189 276.29 528.409C275.39 528.709 274.31 528.519 273.32 528.519C240.7 528.519 208.07 528.519 175.45 528.519C174.13 528.519 172.81 528.519 170.74 528.519C173.25 532.709 175.57 536.229 177.51 539.929C178.96 542.689 180.8 543.599 183.98 543.589C216.6 543.449 249.23 543.509 281.85 543.509C282.85 543.509 283.93 543.279 284.83 543.579C285.85 543.919 286.71 544.739 287.63 545.349C286.75 545.979 285.94 546.799 284.96 547.189C284.2 547.489 283.23 547.249 282.36 547.249C250.49 547.249 218.61 547.249 186.74 547.249C185.46 547.249 184.18 547.249 182.25 547.249C185.24 551.409 187.86 554.759 190.14 558.309C192.08 561.329 194.44 562.359 198.12 562.339C227.24 562.159 256.37 562.239 285.49 562.239C286.61 562.239 287.79 562.079 288.84 562.369C289.51 562.559 290.55 563.579 290.45 563.969C290.25 564.729 289.47 565.589 288.73 565.879C287.85 566.209 286.76 565.989 285.76 565.989C257.51 565.989 229.26 565.989 201.01 565.989C199.69 565.989 198.37 565.989 196.06 565.989C200.11 570.579 203.62 574.389 206.95 578.359C208.62 580.349 210.47 581.039 213.08 581.029C239.83 580.929 266.58 580.969 293.33 580.979C294.45 580.979 295.64 580.829 296.67 581.159C297.3 581.359 298.1 582.359 298.07 582.969C298.05 583.559 297.16 584.399 296.49 584.619C295.58 584.909 294.51 584.729 293.51 584.729C268.26 584.729 243.01 584.729 217.76 584.729C216.46 584.729 215.16 584.729 212.77 584.729C218.01 589.559 222.28 593.739 226.84 597.559C228.3 598.779 230.55 599.619 232.45 599.629C256.95 599.769 281.45 599.719 305.95 599.719C306.95 599.719 308.03 599.499 308.93 599.799C309.84 600.109 310.57 600.949 311.37 601.559C310.61 602.189 309.93 603.029 309.05 603.389C308.3 603.699 307.33 603.459 306.45 603.459C283.83 603.459 261.2 603.459 238.58 603.459C237.27 603.459 235.97 603.459 234.66 603.459C239.61 608.149 244.71 612.099 250.03 615.739C251.64 616.849 253.86 617.599 255.81 617.609C276.81 617.739 297.81 617.689 318.81 617.689C319.93 617.689 321.14 617.489 322.15 617.839C322.9 618.099 323.62 619.019 323.87 619.799C323.97 620.119 322.88 621.109 322.19 621.329C321.27 621.609 320.21 621.439 319.21 621.439C300.59 621.439 281.96 621.439 263.34 621.439C262.16 621.439 260.98 621.439 259.8 621.439C259.69 621.789 259.57 622.129 259.46 622.479C267.07 626.639 274.62 630.889 282.31 634.899C284.09 635.829 286.3 636.339 288.32 636.359C302.94 636.479 317.57 636.379 332.19 636.509C333.44 636.519 334.69 637.769 335.94 638.439C334.74 639.009 333.54 640.069 332.33 640.089C322.08 640.219 311.83 640.169 301.58 640.169C299.42 640.169 297.25 640.169 295.09 640.169C295.04 640.469 294.98 640.769 294.93 641.079C301.05 643.419 307.07 646.129 313.33 648.009C325.86 651.789 337.96 656.829 351.65 656.449C382.5 655.599 413.38 655.739 444.25 655.339C451.47 655.249 458.82 655.359 465.85 654.009C473.64 652.519 481.17 649.589 488.73 647.029C493.97 645.249 499.06 643.029 504.22 641.009C504.16 640.729 504.1 640.449 504.04 640.169C502.74 640.169 501.43 640.169 500.13 640.169C454.76 640.169 409.38 640.189 364.01 640.109C362.19 640.109 359.35 641.449 359.03 638.149C358.99 637.729 362.2 636.499 363.9 636.499C411.65 636.409 459.4 636.379 507.15 636.499C511.92 636.509 516.2 635.759 520.31 633.309C526.68 629.529 533.21 626.009 539.67 622.369C539.56 622.059 539.46 621.749 539.35 621.429C538.03 621.429 536.72 621.429 535.4 621.429C476.53 621.429 417.65 621.439 358.78 621.369C356.95 621.369 354.13 622.699 353.77 619.419C353.73 619.019 356.93 617.749 358.62 617.749C419.99 617.659 481.37 617.679 542.74 617.639C544.41 617.639 546.43 617.579 547.71 616.709C553.54 612.799 559.1 608.559 564.73 604.429ZM552.49 188.929C552.63 188.639 552.77 188.359 552.9 188.069C546.62 184.029 540.43 179.829 534.01 176.029C532 174.839 529.37 174.169 527.03 174.159C446.19 174.069 365.36 174.079 284.52 174.079C266.66 174.079 266.66 174.079 251.89 184.459C250.05 185.749 248.26 187.119 245.79 188.929C348.7 188.929 450.6 188.929 552.49 188.929ZM522.69 170.179C522.79 169.889 522.89 169.589 522.99 169.299C514.61 165.519 506.19 161.809 497.85 157.939C493.44 155.889 488.92 155.289 484.08 155.299C426.71 155.389 369.34 155.359 311.97 155.369C310.6 155.369 309.06 155.049 307.88 155.539C297.27 159.999 286.71 164.609 276.14 169.169C276.27 169.509 276.4 169.849 276.52 170.189C358.59 170.179 440.64 170.179 522.69 170.179ZM478.94 151.539C464.33 144.939 425.79 138.869 399.64 138.859C374.68 138.849 328.78 146.239 321.07 151.539C373.49 151.539 425.82 151.539 478.94 151.539ZM439.34 659.549C414.64 659.549 390.49 659.549 366.34 659.549C366.34 659.859 366.34 660.159 366.35 660.469C390.53 663.629 414.68 663.399 439.34 659.549Z" fill="black"/>
    <path d="M312 344.689C314.66 339.259 317.18 333.749 320.02 328.409C330.71 308.279 343.49 289.549 358.77 272.629C389.62 238.479 426.62 214.629 472.84 207.639C507.37 202.419 541 205.489 572.43 222.379C586.39 229.879 599.39 238.609 609.42 251.119C623.85 269.119 627.98 289.519 622.09 311.619C615.58 336.029 602.87 356.749 584.04 373.909C547.13 407.559 504.35 431.539 458.68 450.849C446.28 456.089 433.05 459.689 421.28 466.039C385.16 485.489 357.74 513.199 344.06 552.759C339.76 565.189 336.93 578.109 337.91 591.289C339.31 610.239 341 629.239 347.94 647.409C345.06 641.859 341.93 636.429 339.36 630.749C331.68 613.779 328.07 595.889 328.82 577.309C329.75 554.249 336.9 532.929 349.39 513.649C369.05 483.289 393.54 457.589 425.48 439.939C438.46 432.759 451.85 426.369 464.09 417.859C483.08 404.649 501.27 390.479 517.3 373.759C530.94 359.549 542.93 344.109 549.76 325.319C558.86 300.319 553.06 278.609 535.88 258.809C524.01 245.129 507.96 240.849 491.62 237.429C444.23 227.509 402.85 240.199 366.95 272.059C345.19 291.379 329 314.909 315.3 340.319C314.45 341.899 313.64 343.499 312.81 345.089C312.54 344.959 312.27 344.829 312 344.689Z" fill="black"/>
    <path d="M287.82 462.29C297.56 462.96 307.1 463.57 316.64 464.3C319.98 464.56 323.4 464.74 326.58 465.68C328.74 466.32 331.38 467.79 332.27 469.64C333.57 472.33 330.91 474.21 329.01 476.1C322.94 482.15 316.44 487.9 311.19 494.62C302.27 506.03 297.1 519.2 296.09 533.82C296.07 534.17 295.87 534.5 295.59 535.34C295.07 534.39 294.58 533.78 294.37 533.09C291.55 523.64 291.26 514.03 294.53 504.79C298.66 493.13 294.17 484.52 285.86 477.76C276.55 470.18 265.54 466.33 254.07 463.38C230.83 457.41 208.03 450.08 186.54 439.25C173.69 432.77 161.77 425.01 151.77 414.3C136.6 398.06 141.26 372.84 156.9 359.28C168.69 349.06 182.73 346.44 197.32 344.71C208.52 343.38 219.71 343.13 230.74 345.89C234.46 346.82 238.01 348.45 241.67 349.66C242.63 349.98 243.73 349.9 244.77 350C244.85 348.96 245.12 347.9 244.98 346.88C244.46 342.94 243.68 339.03 243.24 335.08C242.48 328.19 245.52 322.74 250.92 319.01C255.18 316.08 260.05 313.97 264.85 311.94C267.77 310.7 271.07 310.55 273.42 313.47C275.26 315.76 275.24 321.12 273.29 323.78C266.54 333 258.56 341.02 249.21 347.61C244.96 350.61 244.77 351.04 248.74 354.2C255.43 359.53 259.12 366.52 260.47 374.86C257.72 367.68 252.77 362.64 245 358.59C245.66 364.83 246.01 370.22 246.84 375.54C249.72 393.92 253.49 412.08 260.69 429.35C261.98 432.45 263.5 435.49 265.28 438.33C267.42 441.76 270.07 444.78 275.01 444.81C274.33 449.62 271.06 451.97 267.59 454.17C267.77 454.48 267.95 454.78 268.13 455.09C271.88 452.92 275.96 451.18 279.31 448.51C287.37 442.07 290.51 433.12 291.98 423.11C293.14 415.21 290.05 410.58 283.25 407.5C281.57 406.74 279.72 405.8 278.63 404.41C277.22 402.6 275.1 399.52 275.75 398.31C277.01 395.97 279.75 393.97 282.32 392.91C285.18 391.73 287.51 393.95 288.36 396.58C289.81 401.05 290.61 405.73 291.91 410.26C292.47 412.19 293.25 414.29 294.55 415.75C302.74 424.94 304.31 437.81 297.9 448.38C295.08 453.02 291.53 457.22 287.82 462.29ZM237.11 453.56C236.62 452.34 236.39 451.67 236.1 451.02C229.06 435.74 223.83 419.94 222.75 403.03C221.68 386.41 225.07 371.03 236.14 357.96C236.74 357.25 237.3 356.51 238.01 355.62C237.11 355.26 236.56 354.99 235.97 354.8C223.14 350.62 209.92 348.96 196.5 349.5C182.13 350.08 169.48 355.18 160.67 366.9C147.54 384.36 146.29 404.61 163.88 421.46C171.35 428.62 180.14 433.84 189.52 438.09C193.75 440.01 198.08 441.73 203.13 443.87C198.6 434.12 198.37 431.79 198.02 421.56C197.69 411.89 199.46 402.24 197.7 392.53C196.64 386.7 198.51 381.12 202.64 376.62C203.31 375.89 204.65 375.12 205.43 375.32C206.17 375.51 207.07 376.96 207.06 377.84C207.02 380.25 206.92 382.78 206.14 385.03C204.88 388.67 203.03 392.1 201.48 395.64C199.83 399.42 199.64 403.11 200.98 407.21C205.69 421.67 212.67 435.01 220.43 447.99C220.9 448.78 221.73 449.66 222.56 449.89C227.22 451.17 231.92 452.27 237.11 453.56Z" fill="black"/>
    <path d="M383.251 460.49C379.191 464.18 375.541 467.17 372.261 470.53C352.621 490.68 336.751 513.34 327.261 540.02C320.141 560.04 318.091 580.52 323.371 601.39C323.631 602.42 323.811 603.48 323.801 604.6C318.921 596.67 315.791 588.03 313.691 579.04C306.781 549.42 311.321 521.77 329.011 496.81C333.731 490.15 340.021 484.61 345.371 478.37C352.231 470.37 357.941 461.62 361.901 451.8C369.141 433.83 363.001 419.51 344.881 412.34C336.701 409.1 329.641 404.39 324.411 397.22C321.911 393.79 320.511 390.02 321.461 385.02C322.721 385.86 323.701 386.46 324.621 387.13C331.411 392.07 338.421 396.62 346.741 398.58C353.511 400.18 359.351 398.72 363.841 393.09C365.951 390.45 365.841 388.54 362.811 387.09C360.031 385.76 356.951 385.05 354.001 384.06C351.761 383.31 349.421 382.77 347.291 381.77C339.631 378.15 337.871 371.35 343.401 364.82C346.741 360.88 350.701 357.23 355.001 354.38C368.871 345.18 383.881 338.41 400.641 336.91C406.071 336.43 411.971 337.07 417.161 338.73C429.521 342.68 433.961 355.39 427.291 366.52C425.131 370.12 422.471 373.54 419.491 376.49C406.521 389.34 394.071 402.6 384.121 417.99C378.481 426.71 373.361 435.69 372.151 446.32C371.241 454.35 372.691 456.76 380.331 459.41C380.881 459.6 381.411 459.81 383.251 460.49Z" fill="black"/>
    <path d="M437.13 320.21C465.37 320.21 493.61 320.21 521.85 320.21C522.85 320.21 523.96 319.95 524.82 320.3C525.78 320.69 526.51 321.63 527.34 322.33C526.49 322.87 525.7 323.59 524.78 323.9C523.99 324.16 523.05 323.96 522.17 323.96C465.19 323.96 408.21 323.98 351.23 323.89C349.52 323.89 346.31 322.7 346.34 322.27C346.6 318.94 349.46 320.27 351.28 320.27C379.9 320.18 408.51 320.21 437.13 320.21Z" fill="black"/>
    <path d="M445.781 305.22C419.051 305.22 392.311 305.22 365.581 305.22C364.581 305.22 363.491 305.47 362.611 305.14C361.741 304.81 361.091 303.9 360.351 303.24C361.051 302.66 361.661 301.87 362.461 301.56C363.231 301.27 364.181 301.48 365.061 301.48C418.651 301.48 472.241 301.48 525.831 301.48C526.081 301.48 526.371 301.4 526.571 301.49C527.941 302.14 529.301 302.82 530.661 303.49C529.351 304.07 528.041 305.14 526.721 305.14C507.231 305.25 487.751 305.21 468.261 305.21C460.771 305.22 453.271 305.22 445.781 305.22Z" fill="black"/>
    <path d="M451.941 286.48C428.591 286.48 405.241 286.48 381.901 286.48C380.901 286.48 379.831 286.69 378.931 286.39C378.141 286.12 377.531 285.28 376.851 284.69C377.481 284.05 378.021 283.18 378.781 282.84C379.521 282.52 380.501 282.73 381.371 282.73C428.441 282.73 475.511 282.73 522.581 282.73C522.701 282.73 522.831 282.71 522.951 282.73C524.621 283.01 527.161 281.87 527.221 284.74C527.231 285.29 524.551 286.39 523.101 286.4C503.251 286.51 483.401 286.47 463.551 286.47C459.681 286.48 455.811 286.48 451.941 286.48Z" fill="black"/>
    <path d="M458.401 267.749C439.301 267.749 420.191 267.749 401.091 267.749C400.091 267.749 399.031 267.919 398.121 267.629C397.431 267.409 396.361 266.419 396.471 266.069C396.701 265.299 397.451 264.429 398.201 264.129C399.071 263.789 400.171 264.009 401.171 264.009C439.381 264.009 477.581 264.009 515.791 264.009C516.291 264.009 516.871 263.849 517.271 264.039C518.461 264.599 519.571 265.299 520.721 265.949C519.551 266.549 518.391 267.669 517.211 267.679C497.611 267.779 478.011 267.749 458.401 267.749Z" fill="black"/>
    <path d="M477.551 342.69C464.311 342.69 451.071 342.69 437.831 342.69C436.831 342.69 435.771 342.86 434.861 342.57C434.171 342.35 433.111 341.34 433.221 340.99C433.461 340.22 434.221 339.4 434.971 339.06C435.701 338.73 436.691 338.95 437.561 338.95C464.291 338.95 491.021 338.95 517.751 338.95C518.621 338.95 519.601 338.74 520.341 339.07C521.111 339.41 521.641 340.27 522.281 340.9C521.611 341.49 520.971 342.53 520.261 342.59C517.531 342.8 514.771 342.69 512.021 342.69C500.531 342.69 489.041 342.69 477.551 342.69Z" fill="black"/>
    <path d="M299.851 361.419C288.481 361.419 277.111 361.469 265.741 361.349C264.521 361.339 263.311 360.289 262.101 359.729C263.321 359.049 264.541 357.779 265.771 357.769C288.511 357.649 311.251 357.659 333.981 357.729C335.211 357.729 337.301 358.209 337.511 358.909C338.341 361.699 336.041 361.409 334.331 361.419C322.841 361.429 311.341 361.419 299.851 361.419Z" fill="black"/>
    <path d="M475.59 361.42C465.35 361.42 455.1 361.42 444.86 361.41C443.87 361.41 442.81 361.49 441.9 361.19C441.34 361 440.68 360.16 440.67 359.59C440.66 359.02 441.27 358.22 441.83 357.92C442.43 357.6 443.28 357.68 444.02 357.68C465.13 357.67 486.25 357.64 507.36 357.76C508.59 357.77 509.81 359.03 511.03 359.71C509.84 360.28 508.65 361.33 507.45 361.34C496.83 361.47 486.21 361.42 475.59 361.42Z" fill="black"/>
    <path d="M464.101 375.659C473.331 375.659 482.561 375.599 491.781 375.739C492.981 375.759 494.171 376.829 495.361 377.409C494.141 378.069 492.931 379.309 491.701 379.319C473.371 379.439 455.041 379.439 436.711 379.329C435.501 379.319 434.301 378.259 433.101 377.679C434.331 377.009 435.551 375.769 436.791 375.749C445.891 375.579 454.991 375.659 464.101 375.659Z" fill="black"/>
    <path d="M464.09 245.27C473.32 245.27 482.55 245.21 491.77 245.35C492.97 245.37 494.16 246.43 495.36 247.01C494.15 247.68 492.94 248.92 491.72 248.93C473.39 249.05 455.06 249.05 436.73 248.94C435.52 248.93 434.32 247.87 433.11 247.3C434.33 246.62 435.55 245.38 436.79 245.35C445.88 245.19 454.98 245.27 464.09 245.27Z" fill="black"/>
    <path d="M448.381 394.39C457.381 394.39 466.381 394.31 475.371 394.48C476.581 394.5 477.771 395.79 478.971 396.49C477.771 397.04 476.561 398.06 475.361 398.06C457.241 398.16 439.121 398.16 421.001 398.06C419.781 398.05 418.571 397.01 417.351 396.44C418.571 395.75 419.781 394.5 421.011 394.47C430.131 394.32 439.261 394.39 448.381 394.39Z" fill="black"/>
    <path d="M427.751 413.13C434.741 413.13 441.741 413.04 448.731 413.22C449.821 413.25 450.891 414.53 451.961 415.22C450.871 415.77 449.791 416.79 448.701 416.8C434.591 416.91 420.471 416.91 406.361 416.8C405.271 416.79 404.181 415.74 403.101 415.18C404.201 414.5 405.281 413.25 406.391 413.22C413.511 413.04 420.631 413.13 427.751 413.13Z" fill="black"/>
    <path d="M298.991 380.149C294.131 380.149 289.271 380.259 284.421 380.069C283.211 380.019 282.041 378.979 280.841 378.389C281.961 377.729 283.071 376.509 284.191 376.489C294.151 376.339 304.121 376.339 314.081 376.489C315.211 376.509 316.331 377.719 317.461 378.379C316.281 378.969 315.121 380.019 313.931 380.059C308.951 380.269 303.971 380.149 298.991 380.149Z" fill="black"/>
    <path d="M402.641 436.349C397.521 436.349 392.391 436.459 387.271 436.259C386.271 436.219 385.331 434.989 384.351 434.309C385.311 433.739 386.271 432.689 387.251 432.679C397.501 432.559 407.751 432.549 418.001 432.689C419.041 432.699 420.071 433.869 421.101 434.499C420.071 435.119 419.061 436.229 418.021 436.269C412.901 436.459 407.771 436.359 402.641 436.349Z" fill="black"/>
    <path d="M285.601 342.68C281.001 342.68 276.381 342.8 271.791 342.59C270.781 342.54 269.821 341.35 268.841 340.68C269.791 340.1 270.731 339.03 271.691 339.02C280.771 338.89 289.861 338.88 298.941 339.03C299.921 339.05 300.881 340.29 301.851 340.97C300.911 341.54 299.991 342.56 299.031 342.6C294.571 342.78 290.081 342.68 285.601 342.68Z" fill="black"/>
    <path d="M297.49 323.949C293.87 323.949 290.24 324.069 286.63 323.869C285.67 323.819 284.76 322.749 283.83 322.149C284.72 321.499 285.6 320.319 286.5 320.299C293.74 320.149 300.98 320.149 308.22 320.289C309.16 320.309 310.08 321.429 311 322.039C309.99 322.679 309.02 323.789 307.97 323.859C304.49 324.099 300.99 323.949 297.49 323.949Z" fill="black"/>
  </g>
  <defs>
    <clipPath id="clip0_204_5143">
      <rect width="800" height="799" fill="white"/>
    </clipPath>
  </defs>
</svg>
